<?xml version="1.0" standalone="no"?>
<!DOCTYPE svg PUBLIC "-//W3C//DTD SVG 20010904//EN"
 "http://www.w3.org/TR/2001/REC-SVG-20010904/DTD/svg10.dtd">
<svg version="1.0" xmlns="http://www.w3.org/2000/svg"
 width="309.000000pt" height="309.000000pt" viewBox="0 0 309.000000 309.000000"
 preserveAspectRatio="xMidYMid meet">
<metadata>
Created by potrace 1.11, written by Peter Selinger 2001-2013
</metadata>
<g transform="translate(0.000000,309.000000) scale(0.100000,-0.100000)"
fill="#000000" stroke="none">
<path d="M784 3068 c-4 -6 -3 -8 4 -4 6 3 13 2 17 -4 3 -5 0 -10 -7 -10 -7 0
-1 -8 15 -18 15 -10 24 -22 20 -27 -5 -4 -2 -5 6 0 12 7 12 10 -1 19 -8 6 -13
16 -11 21 5 16 -34 37 -43 23z"/>
<path d="M848 3035 c7 -13 7 -26 1 -38 -8 -13 -6 -15 6 -11 8 3 15 1 15 -4 0
-6 10 -14 21 -17 15 -5 18 -10 9 -15 -8 -5 -7 -9 5 -14 9 -3 13 -10 10 -16 -4
-6 1 -7 11 -3 12 4 15 3 10 -5 -4 -7 -2 -12 3 -12 6 0 11 -7 11 -16 0 -9 5
-12 12 -8 7 4 8 3 4 -4 -4 -7 -14 -12 -22 -12 -9 0 -12 -5 -8 -12 4 -7 3 -8
-4 -4 -6 4 -9 13 -5 21 3 9 -1 15 -11 15 -9 0 -16 5 -16 11 0 6 -7 9 -15 5
-10 -4 -15 1 -15 14 0 11 -4 20 -10 20 -18 0 -25 2 -41 10 -8 5 -21 4 -30 -2
-11 -8 -11 -9 4 -4 15 5 22 -4 18 -26 0 -5 8 -8 19 -8 11 0 20 -5 20 -11 0 -5
5 -7 10 -4 6 3 10 -2 10 -12 0 -15 2 -16 10 -3 7 11 10 11 10 2 0 -8 5 -10 12
-6 7 5 9 2 5 -9 -3 -9 0 -18 8 -21 9 -3 12 -12 9 -21 -5 -12 -9 -13 -20 -4
-11 9 -14 9 -14 0 0 -7 -10 -10 -26 -7 -20 4 -23 2 -15 -8 8 -10 4 -12 -20
-11 -16 1 -33 -3 -36 -8 -4 -6 0 -7 8 -3 8 4 5 0 -5 -8 -11 -9 -26 -16 -33
-16 -8 0 -24 -10 -36 -21 -12 -12 -15 -18 -7 -14 13 8 13 7 1 -8 -15 -18 -26
-23 -16 -7 3 6 2 10 -3 10 -5 0 -15 -11 -22 -25 -7 -13 -17 -22 -22 -19 -5 3
-8 2 -7 -3 3 -20 -2 -34 -11 -28 -5 3 -10 -1 -10 -10 0 -8 -7 -18 -15 -21 -12
-5 -13 -9 -4 -20 10 -12 8 -13 -6 -8 -12 5 -16 4 -12 -3 4 -6 0 -13 -8 -17 -8
-3 -15 -15 -15 -26 0 -11 -5 -20 -11 -20 -6 0 -8 -7 -5 -16 5 -12 2 -15 -10
-10 -13 5 -14 4 -5 -7 8 -11 6 -19 -9 -37 -16 -18 -17 -25 -8 -32 10 -6 10 -8
1 -8 -7 0 -13 -9 -13 -20 0 -14 -5 -18 -17 -14 -17 5 -17 5 0 -6 16 -11 16
-12 -5 -30 -13 -11 -18 -19 -13 -20 6 0 17 6 25 13 8 6 6 2 -4 -10 -11 -13
-15 -27 -10 -35 5 -9 2 -8 -11 2 -17 14 -18 14 -8 -4 8 -15 7 -26 -6 -45 -9
-14 -11 -22 -4 -18 8 5 11 1 10 -13 -1 -11 -5 -20 -10 -20 -5 0 -6 -7 -3 -16
5 -12 2 -15 -11 -10 -15 5 -15 4 1 -9 11 -8 15 -15 9 -15 -6 0 -9 -9 -6 -20 3
-11 10 -17 16 -13 6 3 7 1 3 -5 -4 -6 -13 -9 -21 -6 -9 4 -12 0 -10 -13 2 -10
4 -18 5 -18 1 0 3 -8 5 -18 2 -9 0 -15 -4 -12 -13 8 -12 -77 2 -93 7 -10 7
-13 1 -9 -7 4 -11 -2 -11 -18 0 -14 3 -25 8 -25 5 0 9 -5 9 -11 0 -5 -3 -8 -8
-6 -4 3 -7 -8 -7 -23 -1 -16 3 -26 7 -24 9 6 9 6 12 -53 1 -23 -1 -40 -5 -38
-4 3 -5 -4 -2 -15 3 -11 8 -18 12 -16 4 3 7 -4 7 -15 0 -10 -4 -19 -9 -19 -5
0 -3 -8 4 -17 8 -9 10 -14 4 -11 -6 3 -10 -5 -10 -18 0 -13 5 -22 11 -20 6 2
11 -2 11 -10 0 -7 -4 -11 -9 -8 -4 3 -8 -2 -8 -10 0 -8 8 -20 17 -25 12 -7 14
-10 4 -11 -10 0 -11 -3 -2 -13 8 -10 7 -17 -1 -25 -9 -9 -9 -12 0 -12 7 0 12
-5 12 -11 0 -5 -6 -7 -12 -3 -8 5 -7 0 2 -10 8 -11 13 -29 12 -42 -2 -13 2
-24 8 -24 7 0 8 -6 0 -19 -7 -14 -6 -27 5 -48 9 -18 11 -29 4 -32 -5 -1 -2
-10 8 -18 10 -8 14 -12 8 -10 -5 3 -10 -5 -10 -18 0 -13 4 -23 9 -22 5 1 11
-4 14 -12 3 -8 0 -11 -7 -7 -18 12 -12 -2 12 -25 12 -12 17 -19 11 -16 -7 4
-15 0 -18 -9 -3 -8 -2 -12 4 -9 6 3 10 -3 10 -14 0 -12 5 -21 10 -21 6 0 10
-5 10 -11 0 -5 -4 -7 -10 -4 -5 3 -10 1 -10 -4 0 -6 7 -11 15 -11 8 0 15 -5
15 -11 0 -5 -5 -7 -12 -3 -13 8 -3 -11 21 -40 13 -16 13 -18 1 -11 -12 7 -13
6 -3 -7 7 -8 10 -18 6 -21 -3 -4 2 -7 12 -7 14 0 15 -3 5 -15 -11 -13 -10 -14
3 -9 12 4 15 1 12 -16 -3 -16 0 -20 11 -16 8 3 12 2 9 -3 -3 -5 0 -13 6 -16 5
-4 8 -13 5 -20 -2 -7 2 -16 10 -19 10 -4 13 -1 9 7 -4 6 2 2 13 -10 11 -13 26
-23 34 -23 10 0 9 -3 -2 -10 -21 -13 -3 -13 22 1 15 8 19 8 14 0 -7 -11 4 -15
37 -12 9 1 17 -4 17 -11 0 -9 3 -9 10 2 8 12 10 12 10 1 0 -10 3 -11 14 -2 10
8 16 8 25 -2 6 -8 8 -17 4 -20 -3 -4 -1 -7 5 -7 7 0 12 10 12 23 1 22 1 22 15
-3 8 -14 14 -20 15 -14 0 7 7 15 16 18 8 3 12 2 9 -4 -3 -6 -2 -10 4 -10 5 0
12 6 14 13 3 7 6 5 6 -5 1 -10 5 -18 11 -18 5 0 7 8 4 17 -5 15 -4 15 5 3 7
-11 5 -20 -7 -34 -11 -12 -12 -16 -3 -11 10 5 12 4 7 -3 -4 -7 -14 -12 -22
-12 -10 0 -9 -5 6 -20 12 -12 18 -26 14 -33 -5 -9 -4 -9 6 0 10 9 19 4 42 -28
15 -21 31 -39 35 -39 3 0 -2 10 -13 23 -11 12 -5 9 13 -7 18 -16 29 -34 26
-40 -3 -6 -3 -8 2 -4 9 8 35 -15 35 -31 0 -6 5 -11 11 -11 5 0 7 6 3 13 -4 6
2 3 15 -7 12 -11 19 -26 16 -33 -2 -8 -1 -12 4 -9 4 3 17 -2 27 -10 10 -9 13
-13 7 -9 -28 14 -11 -4 22 -24 19 -11 35 -25 35 -31 0 -15 46 -60 54 -53 3 4
6 -1 6 -11 0 -9 11 -21 25 -28 13 -6 22 -15 19 -19 -3 -5 0 -9 5 -9 6 0 11 -7
11 -16 0 -8 4 -12 10 -9 9 5 14 -7 11 -27 0 -4 8 -10 19 -13 11 -4 20 -11 20
-17 0 -6 8 -17 18 -25 11 -9 12 -12 2 -8 -8 4 -4 -2 9 -13 15 -12 21 -24 16
-32 -5 -7 -4 -11 1 -8 9 6 34 -15 35 -29 1 -5 5 -7 10 -6 4 2 5 -5 2 -14 -4
-10 -2 -14 4 -10 6 4 9 -3 8 -18 -2 -17 1 -22 11 -18 8 3 17 -2 20 -11 3 -9
14 -15 23 -14 11 2 15 -3 13 -17 l-4 -20 16 20 c8 11 16 16 16 10 0 -5 5 -3
11 5 8 12 9 9 5 -10 -3 -14 -3 -19 0 -12 3 6 10 10 15 7 5 -4 6 0 3 8 -3 8 3
20 13 28 17 13 17 13 3 -6 -14 -19 -14 -19 3 -6 9 7 17 20 17 27 0 8 4 14 9
14 5 0 8 8 6 17 -3 23 24 55 39 46 6 -4 5 1 -3 11 -12 15 -12 17 0 14 9 -2 13
4 11 14 -2 12 2 16 13 12 11 -5 14 -2 9 10 -4 9 -1 16 6 16 7 0 10 7 6 16 -4
11 1 18 15 21 16 4 17 8 7 14 -10 7 -10 9 0 9 6 0 12 6 12 14 0 7 7 19 15 26
9 7 13 20 10 28 -4 11 -2 12 7 4 10 -8 13 -4 15 15 0 15 8 30 17 35 9 5 16 16
16 24 0 8 -4 12 -10 9 -5 -3 -10 1 -10 9 0 9 -6 15 -12 14 -7 -2 -12 3 -10 11
2 11 0 12 -11 2 -12 -9 -16 -8 -21 4 -3 9 -10 13 -16 10 -5 -3 -10 -2 -10 4 0
11 -39 27 -55 22 -5 -1 -7 1 -3 5 4 4 2 14 -5 22 -10 13 -9 14 9 4 19 -10 21
-9 16 13 -3 16 0 25 9 25 7 0 9 3 6 7 -4 3 2 12 13 20 11 8 20 19 20 25 0 7
-7 3 -15 -8 -8 -10 -15 -16 -15 -12 0 4 14 22 30 40 17 18 28 38 25 45 -2 7 3
13 12 13 9 0 13 3 10 6 -3 4 -2 15 4 25 10 20 49 26 49 8 0 -8 6 -7 17 2 9 8
14 9 10 3 -3 -6 11 -20 34 -32 48 -26 60 -28 33 -6 -18 15 -18 15 2 5 12 -6
25 -7 29 -3 3 4 5 1 3 -7 -2 -10 6 -15 22 -15 14 -1 24 -6 23 -13 -2 -7 8 -11
25 -9 16 1 34 -6 45 -18 9 -10 17 -14 17 -7 0 7 5 9 10 6 6 -3 10 0 10 7 0 9
3 9 10 -2 9 -13 14 -7 11 12 0 4 6 5 14 2 8 -4 12 -11 8 -17 -3 -6 -1 -7 6 -3
6 4 8 12 5 18 -5 7 0 9 14 6 16 -5 28 1 42 19 11 14 20 23 20 19 0 -4 6 -1 14
6 8 7 12 21 10 31 -1 10 1 15 6 12 5 -3 14 5 21 17 12 22 11 22 -7 8 -12 -9
-9 -3 6 14 14 16 20 26 14 23 -15 -9 -27 20 -12 29 7 4 8 3 4 -4 -4 -7 -2 -12
3 -12 15 0 14 12 -6 39 -9 14 -11 21 -5 17 7 -4 12 -2 12 3 0 6 -5 11 -11 11
-6 0 -9 6 -6 13 2 6 0 21 -6 32 -9 17 -8 18 4 8 11 -9 14 -7 15 13 1 15 -2 22
-10 17 -6 -3 -8 -2 -3 2 4 5 16 10 27 12 10 1 30 13 43 27 21 21 22 25 8 35
-13 9 -13 11 -1 6 10 -5 10 -2 -2 8 -13 10 -15 16 -6 25 9 9 9 12 0 12 -10 0
-10 4 0 19 7 11 16 18 20 15 4 -3 5 3 1 12 -4 11 -3 15 5 10 14 -9 26 12 15
27 -5 7 -8 22 -7 34 1 15 -3 20 -14 15 -9 -3 -13 -1 -9 5 3 5 0 21 -8 36 -11
22 -11 28 3 41 12 10 22 12 35 5 12 -7 17 -6 17 3 0 9 3 9 10 -2 5 -8 10 -10
10 -4 0 6 11 10 25 9 14 -2 23 0 20 5 -3 4 2 11 11 14 8 3 12 2 9 -4 -3 -6 -4
-10 0 -10 3 0 10 11 15 25 5 14 16 25 25 25 11 0 15 11 15 40 0 36 -6 45 -31
42 -4 -1 -5 12 -3 28 2 17 0 29 -4 29 -18 -3 -32 2 -32 12 0 5 6 7 13 3 9 -6
9 -5 0 8 -7 8 -10 18 -6 22 4 4 -1 4 -11 0 -14 -5 -17 -4 -12 4 4 7 1 12 -8
12 -9 0 -15 3 -15 8 1 4 1 18 0 32 -1 20 -3 22 -11 10 -9 -13 -10 -13 -10 0 0
9 -9 22 -20 30 -14 10 -17 17 -8 27 7 9 7 13 -1 13 -6 0 -11 5 -11 11 0 6 6 9
13 6 7 -3 13 3 13 13 0 10 -4 18 -9 17 -5 -1 -12 4 -15 12 -3 9 0 11 8 6 8 -5
11 -4 6 3 -4 6 -13 9 -21 5 -8 -3 -15 0 -15 7 0 6 -5 8 -12 4 -7 -4 -8 -3 -4
5 4 6 12 8 18 5 7 -5 9 -1 5 9 -3 9 -1 18 6 21 9 3 8 8 -3 15 -8 6 -10 11 -4
11 7 0 15 7 18 16 4 9 2 13 -5 8 -8 -4 -9 1 -4 16 5 17 4 21 -6 16 -8 -4 -6
-1 4 7 18 15 24 33 8 22 -5 -3 -12 -1 -16 5 -3 5 -1 10 6 10 7 0 5 6 -6 14
-18 13 -18 13 1 24 17 10 17 11 2 12 -10 0 -18 5 -18 11 0 5 4 8 8 5 5 -3 9 1
9 8 0 8 -6 12 -12 10 -7 -3 -11 4 -10 18 2 13 -3 33 -11 44 -11 19 -11 24 5
38 10 9 21 13 25 9 4 -4 4 0 0 10 -3 10 -1 17 6 17 6 0 9 4 6 8 -2 4 -1 14 4
21 4 8 4 26 0 42 -6 20 -5 26 4 23 8 -3 12 6 12 25 0 17 -3 28 -8 25 -4 -3 -8
8 -8 23 0 16 -6 35 -12 42 -11 11 -10 12 0 6 11 -6 11 -3 1 13 -7 12 -18 18
-24 14 -5 -3 -4 2 4 11 10 13 10 17 1 17 -8 0 -10 8 -7 21 5 17 3 18 -9 8 -8
-7 -14 -8 -13 -3 1 5 0 12 -1 17 -1 4 -3 13 -4 20 -1 6 -8 11 -15 9 -7 -1 -10
2 -7 7 3 5 -2 15 -11 22 -12 10 -14 10 -9 2 4 -7 2 -13 -3 -13 -6 0 -11 9 -11
21 0 16 -4 19 -17 15 -10 -4 -14 -4 -11 0 11 10 -29 47 -43 39 -8 -5 -10 -4
-5 3 4 7 2 12 -4 12 -6 0 -8 5 -5 10 6 9 -8 14 -27 11 -5 0 -8 4 -8 9 0 6 -7
10 -16 10 -10 0 -14 6 -11 14 4 10 0 12 -15 8 -14 -3 -19 -1 -14 6 4 7 1 12
-9 12 -9 0 -14 4 -11 9 3 5 -2 8 -12 7 -9 0 -16 4 -15 11 2 7 -6 10 -17 8 -14
-3 -20 2 -20 13 0 15 -2 15 -10 2 -6 -10 -10 -11 -10 -2 0 6 -7 12 -15 12 -9
0 -18 7 -21 15 -4 8 -10 13 -14 10 -12 -8 -41 6 -34 16 3 5 -1 6 -9 4 -18 -7
-69 19 -59 31 4 4 -2 2 -12 -6 -13 -10 -17 -10 -12 -2 5 8 -1 12 -18 12 -14 0
-26 5 -26 11 0 6 -9 9 -20 6 -11 -3 -18 -2 -15 3 8 13 -22 19 -34 7 -8 -8 -11
-8 -11 2 0 8 -7 11 -20 8 -11 -3 -22 -1 -25 4 -3 4 -13 5 -22 2 -10 -4 -14 -2
-10 4 4 6 -2 13 -13 16 -11 3 -18 1 -14 -4 3 -5 0 -9 -6 -9 -6 0 -13 7 -17 16
-5 13 -7 13 -14 2 -7 -11 -11 -10 -19 2 -8 13 -10 13 -10 1 0 -11 -4 -10 -13
4 -11 14 -16 15 -22 5 -6 -9 -4 -11 6 -5 8 5 10 4 6 0 -13 -15 -39 -15 -33 0
3 8 -2 12 -12 10 -9 -1 -23 2 -29 8 -8 5 -13 5 -13 0 0 -5 6 -15 13 -23 10
-12 9 -12 -5 -1 -9 7 -22 10 -27 7 -5 -4 -13 -1 -17 5 -5 8 -3 9 6 4 9 -6 11
-4 5 4 -5 9 -10 10 -18 2 -6 -6 -22 -11 -36 -11 -21 0 -23 2 -11 10 8 5 11 10
7 10 -4 0 -20 -8 -34 -17 -16 -11 -24 -13 -19 -5 6 10 1 11 -21 6 -15 -4 -33
-11 -40 -16 -7 -6 -14 -5 -18 2 -5 8 -11 7 -23 -2 -13 -11 -14 -11 -7 2 5 9 0
7 -14 -4 -22 -20 -22 -20 -15 0 7 18 7 18 -16 -1 -13 -11 -21 -15 -17 -9 3 6
0 11 -8 11 -8 0 -12 -4 -10 -8 3 -4 -3 -10 -12 -13 -9 -4 -20 -1 -25 6 -5 9
-8 7 -8 -7 0 -15 -2 -17 -9 -6 -6 9 -11 10 -15 2 -4 -6 -16 -16 -28 -22 -16
-9 -19 -8 -13 3 4 7 -3 2 -14 -12 -12 -14 -19 -18 -16 -9 4 10 0 16 -9 16 -8
0 -12 -6 -9 -16 4 -11 -1 -9 -15 6 -12 12 -23 28 -24 35 -4 17 -24 38 -38 38
-6 0 -8 5 -5 10 3 6 1 10 -5 10 -6 0 -8 5 -4 12 4 7 3 8 -4 4 -7 -4 -17 3 -24
18 -9 22 -14 24 -26 13 -9 -7 -13 -7 -9 -1 4 6 -3 20 -15 30 -21 19 -21 19
-10 -1z m8 -124 c1 -6 0 -7 -3 -1 -2 5 -9 8 -13 5 -5 -3 -11 -1 -14 4 -4 5 2
8 11 7 9 -2 18 -8 19 -15z m114 -82 c0 -6 -4 -7 -10 -4 -5 3 -10 11 -10 16 0
6 5 7 10 4 6 -3 10 -11 10 -16z m1530 -519 c0 -5 -2 -10 -4 -10 -3 0 -8 5 -11
10 -3 6 -1 10 4 10 6 0 11 -4 11 -10z m0 -1120 c0 -5 -2 -10 -4 -10 -3 0 -8 5
-11 10 -3 6 -1 10 4 10 6 0 11 -4 11 -10z m-170 -484 c0 -2 -8 -10 -17 -17
-16 -13 -17 -12 -4 4 13 16 21 21 21 13z m-120 -32 c0 -8 -19 -13 -24 -6 -3 5
1 9 9 9 8 0 15 -2 15 -3z"/>
<path d="M2445 2140 c-3 -5 -1 -10 4 -10 6 0 11 5 11 10 0 6 -2 10 -4 10 -3 0
-8 -4 -11 -10z"/>
<path d="M2466 1308 c3 -5 10 -6 15 -3 13 9 11 12 -6 12 -8 0 -12 -4 -9 -9z"/>
<path d="M1745 120 c-3 -5 -2 -10 4 -10 5 0 13 5 16 10 3 6 2 10 -4 10 -5 0
-13 -4 -16 -10z"/>
</g>
</svg>
